<svg width="87" height="89" viewBox="0 0 87 89" fill="none" xmlns="http://www.w3.org/2000/svg">
<g filter="url(#filter0_bd_164_6893)">
<path d="M22.2406 31.0277C18.3631 24.3611 23.1725 16 30.8848 16H87V65H47.7522C44.1909 65 40.8985 63.1061 39.108 60.0277L22.2406 31.0277Z" fill="black" fill-opacity="0.82" shape-rendering="crispEdges"/>
</g>
<path fill-rule="evenodd" clip-rule="evenodd" d="M65.1452 27.256C65.4674 27.1929 65.8001 27.2101 66.114 27.306C66.4277 27.4019 66.713 27.5735 66.9448 27.8056C66.945 27.8057 66.9447 27.8055 66.9448 27.8056L79.9911 40.8519C80.1783 41.0361 80.3271 41.2555 80.429 41.4975C80.5318 41.7416 80.5847 42.0038 80.5847 42.2686C80.5847 42.5335 80.5318 42.7957 80.429 43.0398C80.3271 43.2818 80.1783 43.5012 79.9911 43.6854L68.6854 54.9911C68.5012 55.1783 68.2818 55.3271 68.0398 55.429C67.7957 55.5318 67.5335 55.5847 67.2686 55.5847C67.0038 55.5847 66.7416 55.5318 66.4975 55.429C66.2555 55.3271 66.0361 55.1783 65.8519 54.9911L52.806 41.9452C52.8059 41.9451 52.8062 41.9454 52.806 41.9452C52.5739 41.7134 52.4019 41.4277 52.306 41.114C52.2101 40.8001 52.1929 40.4674 52.256 40.1452L52.2567 40.1417L54.2692 30.0542C54.3483 29.658 54.658 29.3483 55.0542 29.2692L65.1417 27.2567L65.3374 28.2374L65.1452 27.256ZM65.5295 29.2188L56.1 31.1L54.2188 40.5295L54.2195 40.5303L67.2686 53.5794L78.5794 42.2686L65.5295 29.2188Z" fill="white"/>
<path d="M60.5 37C61.3284 37 62 36.3284 62 35.5C62 34.6716 61.3284 34 60.5 34C59.6716 34 59 34.6716 59 35.5C59 36.3284 59.6716 37 60.5 37Z" fill="white"/>
<defs>
<filter id="filter0_bd_164_6893" x="0.869141" y="0" width="106.131" height="89" filterUnits="userSpaceOnUse" color-interpolation-filters="sRGB">
<feFlood flood-opacity="0" result="BackgroundImageFix"/>
<feGaussianBlur in="BackgroundImage" stdDeviation="7.5"/>
<feComposite in2="SourceAlpha" operator="in" result="effect1_backgroundBlur_164_6893"/>
<feColorMatrix in="SourceAlpha" type="matrix" values="0 0 0 0 0 0 0 0 0 0 0 0 0 0 0 0 0 0 127 0" result="hardAlpha"/>
<feOffset dy="4"/>
<feGaussianBlur stdDeviation="10"/>
<feComposite in2="hardAlpha" operator="out"/>
<feColorMatrix type="matrix" values="0 0 0 0 0 0 0 0 0 0 0 0 0 0 0 0 0 0 0.25 0"/>
<feBlend mode="normal" in2="effect1_backgroundBlur_164_6893" result="effect2_dropShadow_164_6893"/>
<feBlend mode="normal" in="SourceGraphic" in2="effect2_dropShadow_164_6893" result="shape"/>
</filter>
</defs>
</svg>
