<svg width="160" height="160" viewBox="0 0 160 160" fill="none" xmlns="http://www.w3.org/2000/svg">
<path opacity="0.18" fill-rule="evenodd" clip-rule="evenodd" d="M80 14.5455C43.8505 14.5455 14.5455 43.8505 14.5455 80C14.5455 116.15 43.8505 145.455 80 145.455C116.15 145.455 145.455 116.15 145.455 80C145.455 43.8505 116.15 14.5455 80 14.5455ZM0 80C0 35.8172 35.8172 0 80 0C124.183 0 160 35.8172 160 80C160 124.183 124.183 160 80 160C35.8172 160 0 124.183 0 80ZM62.0229 44.4969C64.3876 43.2313 67.257 43.37 69.4887 44.8578L113.125 73.9487C115.148 75.2976 116.364 77.5683 116.364 80C116.364 82.4317 115.148 84.7024 113.125 86.0513L69.4887 115.142C67.257 116.63 64.3876 116.769 62.0229 115.503C59.6581 114.238 58.1818 111.773 58.1818 109.091V50.9091C58.1818 48.2269 59.6581 45.7625 62.0229 44.4969ZM72.7273 64.4983V95.5017L95.9798 80L72.7273 64.4983Z" fill="white"/>
</svg>
